<svg width="18" height="12" viewBox="0 0 18 12" fill="none" xmlns="http://www.w3.org/2000/svg">
<path d="M15.7852 0H2C0.895431 0 0 0.895431 0 2V10C0 11.1046 0.895433 12 2 12H15.7852C16.8898 12 17.7852 11.1046 17.7852 10V2C17.7852 0.895431 16.8898 0 15.7852 0Z" fill="#00AFCA"/>
<path d="M2.06672 1.44298C2.03893 1.32155 2.03198 1.27869 2.08409 1.22512C2.1084 1.20012 2.1084 1.15726 2.08409 1.12869C2.05977 1.10012 2.01809 1.10369 1.9903 1.12869C1.88262 1.2394 1.91041 1.35369 1.9382 1.47155C1.85483 1.44298 1.76799 1.4644 1.71935 1.52512C1.69504 1.55369 1.64988 1.6394 1.73672 1.77512C1.75756 1.80726 1.79577 1.8144 1.82704 1.79655C1.8583 1.77512 1.86525 1.73583 1.84788 1.70369C1.81662 1.65369 1.81662 1.62155 1.82356 1.61083C1.83399 1.59655 1.86525 1.5894 1.89998 1.60369C1.92083 1.61083 1.97293 1.6394 1.97293 1.72155C1.97293 1.78583 1.94514 1.84655 1.89304 1.88583C1.84093 1.92512 1.77493 1.93583 1.71241 1.9144C1.63251 1.8894 1.58041 1.80369 1.58041 1.70726C1.58041 1.63583 1.5943 1.56798 1.62209 1.50369C1.62557 1.49298 1.7263 1.27869 1.75409 1.20012C1.8062 1.04298 1.75409 0.964404 1.71935 0.92869C1.67072 0.885833 1.60125 0.871547 1.5422 0.900118C1.53178 0.90369 1.52483 0.910833 1.51788 0.914404C1.51093 0.907261 1.50399 0.90369 1.49357 0.900118C1.43451 0.871547 1.36504 0.885833 1.31641 0.92869C1.28167 0.960833 1.22957 1.04298 1.28167 1.20012C1.30599 1.27869 1.40672 1.49298 1.4102 1.50012C1.43799 1.5644 1.45188 1.63583 1.45188 1.70369C1.45188 1.80012 1.3963 1.88583 1.31988 1.91083C1.25736 1.93226 1.19136 1.92155 1.13925 1.88226C1.08715 1.84298 1.05936 1.78226 1.05936 1.71798C1.05936 1.63583 1.11146 1.61083 1.1323 1.60012C1.16704 1.5894 1.1983 1.59655 1.20872 1.60726C1.21915 1.61798 1.21567 1.65012 1.18441 1.70012C1.16357 1.73226 1.17399 1.77512 1.20525 1.79298C1.23651 1.8144 1.2782 1.80369 1.29557 1.77155C1.37893 1.63583 1.33378 1.55012 1.31293 1.52155C1.26778 1.46083 1.17746 1.4394 1.09409 1.46798C1.12188 1.34655 1.1462 1.23226 1.04199 1.12512C1.01767 1.10012 0.975989 1.10012 0.948199 1.12512C0.92041 1.15012 0.923884 1.19298 0.948199 1.22155C1.0003 1.27512 0.993357 1.32155 0.965568 1.4394C0.948199 1.51083 0.927358 1.60369 0.927358 1.7144C0.927358 1.7894 0.951673 1.86083 0.996831 1.91798H0.993357C0.958621 1.91798 0.927358 1.94655 0.927358 1.98583C0.927358 2.02155 0.955147 2.05369 0.993357 2.05369H0.996831C0.955147 2.11083 0.927358 2.18226 0.927358 2.25726C0.927358 2.36798 0.948199 2.45726 0.965568 2.53226C0.993357 2.65369 1.0003 2.69655 0.948199 2.75012C0.923884 2.77512 0.923884 2.81798 0.948199 2.84655C0.962094 2.86083 0.979463 2.86798 0.993357 2.86798C1.01073 2.86798 1.02809 2.86083 1.03851 2.84655C1.1462 2.73583 1.11841 2.62155 1.09062 2.50369C1.17399 2.53226 1.26083 2.51083 1.30946 2.45012C1.33378 2.42155 1.37893 2.33583 1.29209 2.20012C1.27125 2.16798 1.23304 2.16083 1.20178 2.17869C1.17051 2.20012 1.16357 2.2394 1.18094 2.27155C1.2122 2.32155 1.2122 2.35369 1.20525 2.3644C1.19483 2.37869 1.16357 2.38583 1.12883 2.37155C1.10799 2.3644 1.05588 2.33583 1.05588 2.25369C1.05588 2.1894 1.08367 2.12869 1.13578 2.0894C1.18788 2.05012 1.25388 2.0394 1.31641 2.06083C1.3963 2.08583 1.44841 2.17155 1.44841 2.26798C1.44841 2.3394 1.43451 2.40726 1.40672 2.47155L0.972515 3.47512C0.937779 3.55726 0.92041 3.64298 0.92041 3.73226C0.92041 3.84655 0.972515 3.95369 1.05241 4.01798C0.972515 4.08226 0.92041 4.1894 0.92041 4.30369C0.92041 4.39298 0.937779 4.48226 0.972515 4.56083L1.40325 5.55726C1.43104 5.62155 1.44493 5.69298 1.44493 5.76083C1.44493 5.85726 1.38936 5.94298 1.31293 5.96798C1.25041 5.98941 1.18441 5.97869 1.1323 5.9394C1.0802 5.90012 1.05241 5.8394 1.05241 5.77512C1.05241 5.69298 1.10451 5.66798 1.12536 5.65726C1.16009 5.64655 1.19136 5.65369 1.20178 5.6644C1.2122 5.67512 1.20872 5.70726 1.17746 5.75726C1.15662 5.7894 1.16704 5.83226 1.1983 5.85012C1.22957 5.87155 1.27125 5.86083 1.28862 5.82869C1.37199 5.69298 1.32683 5.60726 1.30599 5.57869C1.26083 5.51798 1.17051 5.49655 1.08715 5.52512C1.11494 5.40369 1.13925 5.2894 1.03504 5.18226C1.01073 5.15726 0.969042 5.15726 0.941252 5.18226C0.916937 5.20726 0.916937 5.25012 0.941252 5.27869C0.993357 5.33226 0.98641 5.37869 0.958621 5.49655C0.941252 5.56798 0.92041 5.66083 0.92041 5.77155C0.92041 5.84655 0.944726 5.91798 0.989884 5.97512H0.98641C0.951673 5.97512 0.92041 6.00369 0.92041 6.04298C0.92041 6.08226 0.948199 6.11083 0.98641 6.11083H0.989884C0.9482 6.16798 0.92041 6.2394 0.92041 6.3144C0.92041 6.42512 0.941252 6.5144 0.958621 6.5894C0.98641 6.71083 0.993357 6.75369 0.941252 6.80726C0.916937 6.83226 0.916937 6.87512 0.941252 6.90369C0.955147 6.91798 0.972515 6.92512 0.98641 6.92512C1.00378 6.92512 1.02115 6.91798 1.03157 6.90369C1.13925 6.79298 1.11146 6.67869 1.08367 6.56083C1.16704 6.58941 1.25388 6.56798 1.30251 6.50726C1.32683 6.47869 1.37199 6.39298 1.28515 6.25726C1.2643 6.22512 1.22609 6.21798 1.19483 6.23583C1.16357 6.25726 1.15662 6.29655 1.17399 6.32869C1.20525 6.37869 1.20525 6.41083 1.1983 6.42155C1.18788 6.43583 1.15662 6.44298 1.12188 6.42869C1.10104 6.42155 1.04894 6.39298 1.04894 6.31083C1.04894 6.24655 1.07673 6.18583 1.12883 6.14655C1.18094 6.10726 1.24694 6.09655 1.30946 6.11798C1.38936 6.14298 1.44146 6.22869 1.44146 6.32512C1.44146 6.39655 1.42757 6.4644 1.39978 6.52869L0.972515 7.53583C0.937779 7.61798 0.92041 7.70369 0.92041 7.79298C0.92041 7.90726 0.972515 8.01441 1.05241 8.07869C0.972515 8.14298 0.92041 8.25012 0.92041 8.36441C0.92041 8.45369 0.937779 8.54298 0.972515 8.62155L1.40325 9.61798C1.43104 9.68226 1.44493 9.75369 1.44493 9.82155C1.44493 9.91798 1.38936 10.0037 1.31293 10.0287C1.25041 10.0501 1.18441 10.0394 1.1323 10.0001C1.0802 9.96083 1.05241 9.90012 1.05241 9.83583C1.05241 9.75369 1.10451 9.72869 1.12536 9.71798C1.16009 9.70726 1.19136 9.7144 1.20178 9.72512C1.2122 9.73583 1.20872 9.76798 1.17746 9.81798C1.15662 9.85012 1.16704 9.89298 1.1983 9.91083C1.22957 9.93226 1.27125 9.92155 1.28862 9.8894C1.37199 9.75369 1.32683 9.66798 1.30599 9.6394C1.26083 9.57869 1.17051 9.55726 1.08715 9.58583C1.11494 9.46441 1.13925 9.35012 1.03504 9.24298C1.01073 9.21798 0.969042 9.21798 0.941252 9.24298C0.916937 9.26798 0.916937 9.31083 0.941252 9.33941C0.993357 9.39298 0.98641 9.43941 0.958621 9.55726C0.941252 9.62869 0.92041 9.72155 0.92041 9.83226C0.92041 9.9394 0.969041 10.0394 1.05241 10.1037C0.969041 10.168 0.92041 10.268 0.92041 10.3751C0.92041 10.4858 0.941252 10.5751 0.958621 10.6501C0.98641 10.7715 0.993357 10.8144 0.941252 10.868C0.916937 10.893 0.916937 10.9358 0.941252 10.9644C0.955147 10.9787 0.972515 10.9858 0.98641 10.9858C1.00378 10.9858 1.02115 10.9787 1.03157 10.9644C1.13925 10.8537 1.11146 10.7394 1.08367 10.6215C1.16704 10.6501 1.25388 10.6287 1.30251 10.568C1.32683 10.5394 1.37199 10.4537 1.28515 10.318C1.2643 10.2858 1.22609 10.2787 1.19483 10.2965C1.16357 10.318 1.15662 10.3573 1.17399 10.3894C1.20525 10.4394 1.20525 10.4715 1.1983 10.4823C1.18788 10.4965 1.15662 10.5037 1.12188 10.4894C1.10104 10.4823 1.04894 10.4537 1.04894 10.3715C1.04894 10.3073 1.07673 10.2465 1.12883 10.2073C1.18094 10.168 1.24694 10.1573 1.30946 10.1787C1.38936 10.2037 1.44146 10.2894 1.44146 10.3858C1.44146 10.4573 1.42757 10.5251 1.39978 10.5894C1.3963 10.6001 1.29557 10.8144 1.26778 10.893C1.21567 11.0501 1.26778 11.1287 1.30251 11.1644C1.33378 11.193 1.37199 11.2073 1.41367 11.2073C1.43799 11.2073 1.45883 11.2037 1.47967 11.193C1.49009 11.1894 1.49704 11.1823 1.50399 11.1787C1.51093 11.1858 1.51788 11.1894 1.5283 11.193C1.54914 11.2037 1.57346 11.2073 1.5943 11.2073C1.63251 11.2073 1.6742 11.193 1.70546 11.1644C1.7402 11.1323 1.7923 11.0501 1.7402 10.893C1.71588 10.8144 1.61514 10.6001 1.61167 10.593C1.58388 10.5287 1.56999 10.4573 1.56999 10.3894C1.56999 10.293 1.62556 10.2073 1.70199 10.1823C1.76451 10.1608 1.83051 10.1715 1.88262 10.2108C1.93472 10.2501 1.96251 10.3108 1.96251 10.3751C1.96251 10.4573 1.91041 10.4823 1.88956 10.493C1.85483 10.5037 1.82356 10.4965 1.81314 10.4858C1.80272 10.4751 1.8062 10.443 1.83746 10.393C1.8583 10.3608 1.84788 10.318 1.81662 10.3001C1.78535 10.2787 1.74367 10.2894 1.7263 10.3215C1.64293 10.4573 1.68809 10.543 1.70893 10.5715C1.75409 10.6323 1.84441 10.6537 1.92777 10.6251C1.89998 10.7465 1.87567 10.8608 1.97988 10.968C1.99377 10.9823 2.01114 10.9894 2.02504 10.9894C2.03893 10.9894 2.05977 10.9823 2.07019 10.968C2.09451 10.943 2.09451 10.9001 2.07019 10.8715C2.01809 10.818 2.02504 10.7715 2.05283 10.6537C2.07019 10.5823 2.09104 10.4894 2.09104 10.3787C2.09104 10.2715 2.04241 10.1715 1.95904 10.1073C2.04241 10.043 2.09104 9.94298 2.09104 9.83583C2.09104 9.72512 2.07019 9.63583 2.05283 9.56083C2.02504 9.43941 2.01809 9.39655 2.07019 9.34298C2.09451 9.31798 2.09451 9.27512 2.07019 9.24655C2.04588 9.21798 2.00419 9.22155 1.97641 9.24655C1.86872 9.35726 1.89651 9.47155 1.9243 9.58941C1.84093 9.56083 1.75409 9.58226 1.70546 9.64298C1.68114 9.67155 1.63599 9.75726 1.72283 9.89298C1.74367 9.92512 1.78188 9.93226 1.81314 9.9144C1.84441 9.89298 1.85135 9.85369 1.83399 9.82155C1.80272 9.77155 1.80272 9.7394 1.80967 9.72869C1.82009 9.71441 1.85135 9.70726 1.88609 9.72155C1.90693 9.72869 1.95904 9.75726 1.95904 9.83941C1.95904 9.90369 1.93125 9.96441 1.87914 10.0037C1.82704 10.043 1.76104 10.0537 1.69851 10.0323C1.61862 10.0073 1.56651 9.92155 1.56651 9.82512C1.56651 9.75369 1.58041 9.68583 1.6082 9.62155L2.03893 8.62512C2.07367 8.54298 2.09104 8.45726 2.09104 8.36798C2.09104 8.25369 2.03893 8.14655 1.95904 8.08226C2.03893 8.01798 2.09104 7.91083 2.09104 7.79655C2.09104 7.70726 2.07367 7.61798 2.03893 7.5394L1.6082 6.54298C1.58041 6.47869 1.56651 6.40726 1.56651 6.3394C1.56651 6.24298 1.62209 6.15726 1.69851 6.13226C1.76104 6.11083 1.82704 6.12155 1.87914 6.16083C1.93125 6.20012 1.95904 6.26083 1.95904 6.32512C1.95904 6.40726 1.90693 6.43226 1.88609 6.44298C1.85135 6.45369 1.82009 6.44655 1.80967 6.43583C1.79925 6.42512 1.80272 6.39298 1.83399 6.34298C1.85483 6.31083 1.84441 6.26798 1.81314 6.25012C1.78188 6.22869 1.7402 6.23941 1.72283 6.27155C1.63946 6.40726 1.68462 6.49298 1.70546 6.52155C1.75062 6.58226 1.84093 6.60369 1.9243 6.57512C1.89651 6.69655 1.8722 6.81083 1.97641 6.91798C1.9903 6.93226 2.00767 6.9394 2.02156 6.9394C2.03546 6.9394 2.0563 6.93226 2.06672 6.91798C2.09104 6.89298 2.09104 6.85012 2.06672 6.82155C2.01462 6.76798 2.02156 6.72155 2.04935 6.60369C2.06672 6.53226 2.08756 6.4394 2.08756 6.32869C2.08756 6.25369 2.06325 6.18226 2.01809 6.12512H2.02156C2.0563 6.12512 2.08756 6.09655 2.08756 6.05726C2.08756 6.02155 2.05977 5.9894 2.02156 5.9894H2.01809C2.05977 5.93226 2.08756 5.86083 2.08756 5.78583C2.08756 5.67512 2.06672 5.58583 2.04935 5.51083C2.02156 5.3894 2.01462 5.34655 2.06672 5.29298C2.09104 5.26798 2.09104 5.22512 2.06672 5.19655C2.04241 5.16798 2.00072 5.17155 1.97293 5.19655C1.86525 5.30726 1.89304 5.42155 1.92083 5.5394C1.83746 5.51083 1.75062 5.53226 1.70199 5.59298C1.67767 5.62155 1.63251 5.70726 1.71935 5.84298C1.7402 5.87512 1.77841 5.88226 1.80967 5.8644C1.84093 5.84298 1.84788 5.80369 1.83051 5.77155C1.79925 5.72155 1.79925 5.6894 1.8062 5.67869C1.81662 5.6644 1.84788 5.65726 1.88262 5.67155C1.90346 5.67869 1.95556 5.70726 1.95556 5.7894C1.95556 5.85369 1.92777 5.9144 1.87567 5.95369C1.82356 5.99298 1.75756 6.00369 1.69504 5.98226C1.61514 5.95726 1.56304 5.87155 1.56304 5.77512C1.56304 5.70369 1.57693 5.63583 1.60472 5.57155L2.03546 4.57512C2.07019 4.49298 2.08756 4.40726 2.08756 4.31798C2.08756 4.20369 2.03546 4.09655 1.95556 4.03226C2.03546 3.96798 2.08756 3.86083 2.08756 3.74655C2.08756 3.65726 2.07019 3.56798 2.03546 3.4894L1.60472 2.49298C1.57693 2.42869 1.56304 2.35726 1.56304 2.2894C1.56304 2.19298 1.61862 2.10726 1.69504 2.08226C1.75756 2.06083 1.82356 2.07155 1.87567 2.11083C1.92777 2.15012 1.95556 2.21083 1.95556 2.27512C1.95556 2.35726 1.90346 2.38226 1.88262 2.39298C1.84788 2.40369 1.81662 2.39655 1.8062 2.38583C1.79577 2.37512 1.79925 2.34298 1.83051 2.29298C1.85135 2.26083 1.84093 2.21798 1.80967 2.20012C1.77841 2.17869 1.73672 2.1894 1.71935 2.22155C1.63599 2.35726 1.68114 2.44298 1.70199 2.47155C1.74714 2.53226 1.83746 2.55369 1.92083 2.52512C1.89304 2.64655 1.86872 2.76083 1.97293 2.86798C1.98683 2.88226 2.00419 2.8894 2.01809 2.8894C2.03198 2.8894 2.05283 2.88226 2.06325 2.86798C2.08756 2.84298 2.08756 2.80012 2.06325 2.77155C2.01114 2.71798 2.01809 2.67155 2.04588 2.55369C2.06325 2.48226 2.08409 2.3894 2.08409 2.27869C2.08409 2.20369 2.05977 2.13226 2.01462 2.07512H2.01809C2.05283 2.07512 2.08409 2.04655 2.08409 2.00726C2.08409 1.97155 2.0563 1.9394 2.01809 1.9394H2.01462C2.0563 1.88226 2.08409 1.81083 2.08409 1.73583C2.10493 1.60726 2.08409 1.51798 2.06672 1.44298ZM1.39978 1.15726C1.37546 1.08583 1.38588 1.04298 1.39978 1.02869C1.4102 1.01798 1.42409 1.01798 1.43451 1.02512C1.44493 1.03226 1.44493 1.0394 1.44493 1.04298C1.44493 1.07869 1.47272 1.11083 1.51093 1.11083C1.54567 1.11083 1.57693 1.08226 1.57693 1.04298C1.57693 1.0394 1.57693 1.02869 1.58735 1.02512C1.59778 1.02155 1.61167 1.02155 1.62209 1.02869C1.63599 1.04298 1.64641 1.08583 1.62209 1.15726C1.60472 1.21083 1.5422 1.34655 1.50746 1.41798C1.47967 1.34655 1.41714 1.20726 1.39978 1.15726ZM1.51093 3.95012C1.5283 3.97512 1.55262 4.00012 1.57693 4.02155C1.55262 4.04298 1.5283 4.0644 1.51093 4.09298C1.49357 4.06798 1.46925 4.04298 1.44493 4.02155C1.47272 4.00012 1.49357 3.97512 1.51093 3.95012ZM1.51093 8.00726C1.5283 8.03226 1.55262 8.05726 1.57693 8.07869C1.55262 8.10012 1.5283 8.12155 1.51093 8.15012C1.49357 8.12512 1.46925 8.10012 1.44493 8.07869C1.47272 8.06083 1.49357 8.03583 1.51093 8.00726ZM1.62556 10.943C1.64988 11.0144 1.63946 11.0573 1.62556 11.0715C1.61514 11.0823 1.60125 11.0823 1.59083 11.0751C1.58041 11.068 1.58041 11.0608 1.58041 11.0573C1.58041 11.0215 1.55262 10.9894 1.51441 10.9894C1.4762 10.9894 1.44841 11.018 1.44841 11.0573C1.44841 11.0608 1.44841 11.0715 1.43799 11.0751C1.42757 11.0787 1.41367 11.0787 1.40325 11.0715C1.38936 11.0573 1.37893 11.0144 1.40325 10.943C1.42062 10.8894 1.48314 10.7537 1.51788 10.6823C1.54567 10.7537 1.6082 10.8894 1.62556 10.943ZM1.57693 10.1108C1.55262 10.1323 1.5283 10.1537 1.51093 10.1823C1.49357 10.1537 1.46925 10.1323 1.44493 10.1108C1.46925 10.0894 1.49357 10.068 1.51093 10.0394C1.53178 10.068 1.55262 10.0894 1.57693 10.1108ZM1.93125 8.56798L1.51093 9.53583L1.09062 8.56798C1.06283 8.50369 1.04894 8.43226 1.04894 8.36441C1.04894 8.26798 1.10451 8.18226 1.18094 8.15726C1.24346 8.13583 1.30946 8.14655 1.36157 8.18583C1.41367 8.22512 1.44146 8.28583 1.44146 8.35012C1.44146 8.43226 1.38936 8.45726 1.36851 8.46798C1.33378 8.47869 1.30251 8.47155 1.29209 8.46083C1.28167 8.45012 1.28515 8.41798 1.31641 8.36798C1.33725 8.33583 1.32683 8.29298 1.29557 8.27512C1.2643 8.25369 1.22262 8.2644 1.20525 8.29655C1.12188 8.43226 1.16704 8.51798 1.18788 8.54655C1.23651 8.60726 1.32683 8.62869 1.4102 8.60012C1.42062 8.59655 1.43104 8.59298 1.43799 8.58583V8.75726C1.43451 8.72155 1.40672 8.69298 1.37199 8.69298C1.33725 8.69298 1.30599 8.72155 1.30599 8.76083C1.30599 8.80369 1.33725 8.88226 1.43799 8.90369V9.02869C1.43799 9.0644 1.46578 9.09655 1.50399 9.09655C1.5422 9.09655 1.56999 9.06798 1.56999 9.02869V8.90369C1.67072 8.87869 1.70199 8.80369 1.70199 8.76083C1.70199 8.72512 1.6742 8.6894 1.63599 8.6894C1.60125 8.6894 1.56999 8.71798 1.56999 8.75369V8.58226C1.58041 8.58583 1.59083 8.59298 1.59778 8.59655C1.68462 8.62869 1.77146 8.60726 1.82009 8.54298C1.84441 8.51441 1.88956 8.42869 1.80272 8.29298C1.78188 8.26083 1.74367 8.25369 1.71241 8.27155C1.68114 8.29298 1.6742 8.33226 1.69156 8.36441C1.72283 8.41441 1.72283 8.44655 1.71588 8.45726C1.70546 8.47155 1.6742 8.47869 1.63946 8.46441C1.61862 8.45726 1.56651 8.42869 1.56651 8.34655C1.56651 8.28226 1.5943 8.22155 1.64641 8.18226C1.69851 8.14298 1.76451 8.13226 1.82704 8.15369C1.90693 8.17869 1.95904 8.26441 1.95904 8.36083C1.97293 8.43583 1.95904 8.50369 1.93125 8.56798ZM1.93125 7.5894C1.95904 7.65369 1.97293 7.72512 1.97293 7.79298C1.97293 7.88941 1.91735 7.97512 1.84093 8.00012C1.77841 8.02155 1.71241 8.01083 1.6603 7.97155C1.6082 7.93226 1.58041 7.87155 1.58041 7.80726C1.58041 7.72512 1.63251 7.70012 1.65335 7.6894C1.68809 7.67869 1.71935 7.68583 1.72978 7.69655C1.7402 7.70726 1.73672 7.73941 1.70546 7.7894C1.68462 7.82155 1.69504 7.86441 1.7263 7.88226C1.75756 7.90369 1.79925 7.89298 1.81662 7.86083C1.89998 7.72512 1.85483 7.63941 1.83399 7.61083C1.78535 7.55012 1.69504 7.52869 1.61167 7.55726C1.60125 7.56083 1.59083 7.5644 1.58388 7.57155V7.40012C1.58735 7.43583 1.61514 7.4644 1.64988 7.4644C1.68462 7.4644 1.71588 7.43583 1.71588 7.39655C1.71588 7.35369 1.68462 7.27512 1.58388 7.25369V7.12869C1.58388 7.09298 1.55609 7.06083 1.51788 7.06083C1.47967 7.06083 1.45188 7.08941 1.45188 7.12869V7.25369C1.35115 7.27869 1.31988 7.35369 1.31988 7.39655C1.31988 7.43226 1.34767 7.46798 1.38588 7.46798C1.42062 7.46798 1.45188 7.4394 1.45188 7.40369V7.57512C1.44146 7.57155 1.43104 7.56441 1.42409 7.56083C1.33725 7.52869 1.25041 7.55012 1.20178 7.61441C1.17746 7.64298 1.1323 7.72869 1.21915 7.86441C1.23999 7.89655 1.2782 7.90369 1.30946 7.88583C1.34072 7.8644 1.34767 7.82512 1.3303 7.79298C1.29904 7.74298 1.29904 7.71083 1.30599 7.70012C1.31641 7.68583 1.34767 7.67869 1.38241 7.69298C1.40325 7.70012 1.45536 7.72869 1.45536 7.81083C1.45536 7.87512 1.42757 7.93583 1.37546 7.97512C1.32336 8.0144 1.25736 8.02512 1.19483 8.00369C1.11494 7.97869 1.06283 7.89298 1.06283 7.79655C1.06283 7.72512 1.07673 7.65726 1.10451 7.59298L1.52483 6.62512L1.93125 7.5894ZM1.57693 6.05012C1.55262 6.07155 1.5283 6.09298 1.51093 6.12155C1.49357 6.09298 1.46925 6.07155 1.44493 6.05012C1.46925 6.02869 1.49357 6.00726 1.51093 5.97869C1.53178 6.00726 1.55262 6.02869 1.57693 6.05012ZM1.93125 4.50726L1.51093 5.47512L1.09062 4.50726C1.06283 4.44298 1.04894 4.37155 1.04894 4.30369C1.04894 4.20726 1.10451 4.12155 1.18094 4.09655C1.24346 4.07512 1.30946 4.08583 1.36157 4.12512C1.41367 4.1644 1.44146 4.22512 1.44146 4.2894C1.44146 4.37155 1.38936 4.39655 1.36851 4.40726C1.33378 4.41798 1.30251 4.41083 1.29209 4.40012C1.28167 4.3894 1.28515 4.35726 1.31641 4.30726C1.33725 4.27512 1.32683 4.23226 1.29557 4.2144C1.2643 4.19298 1.22262 4.20369 1.20525 4.23583C1.12188 4.37155 1.16704 4.45726 1.18788 4.48583C1.23651 4.54655 1.32683 4.56798 1.4102 4.5394C1.42062 4.53583 1.43104 4.53226 1.43799 4.52512V4.69655C1.43451 4.66083 1.40672 4.63226 1.37199 4.63226C1.33725 4.63226 1.30599 4.66083 1.30599 4.70012C1.30599 4.74298 1.33725 4.82155 1.43799 4.84298V4.96798C1.43799 5.00369 1.46578 5.03583 1.50399 5.03583C1.5422 5.03583 1.56999 5.00726 1.56999 4.96798V4.84298C1.67072 4.81798 1.70199 4.74298 1.70199 4.70012C1.70199 4.6644 1.6742 4.62869 1.63599 4.62869C1.60125 4.62869 1.56999 4.65726 1.56999 4.69298V4.52155C1.58041 4.52512 1.59083 4.53226 1.59778 4.53583C1.68462 4.56798 1.77146 4.54655 1.82009 4.48226C1.84441 4.45369 1.88956 4.36798 1.80272 4.23226C1.78188 4.20012 1.74367 4.19298 1.71241 4.21083C1.68114 4.23226 1.6742 4.27155 1.69156 4.30369C1.72283 4.35369 1.72283 4.38583 1.71588 4.39655C1.70546 4.41083 1.6742 4.41798 1.63946 4.40369C1.61862 4.39655 1.56651 4.36798 1.56651 4.28583C1.56651 4.22155 1.5943 4.16083 1.64641 4.12155C1.69851 4.08226 1.76451 4.07155 1.82704 4.09298C1.90693 4.11798 1.95904 4.20369 1.95904 4.30012C1.97293 4.37512 1.95904 4.44655 1.93125 4.50726ZM1.93125 3.53226C1.95904 3.59655 1.97293 3.66798 1.97293 3.73583C1.97293 3.83226 1.91735 3.91798 1.84093 3.94298C1.77841 3.9644 1.71241 3.95369 1.6603 3.9144C1.6082 3.87512 1.58041 3.8144 1.58041 3.75012C1.58041 3.66798 1.63251 3.64298 1.65335 3.63226C1.68809 3.62155 1.71935 3.62869 1.72978 3.6394C1.7402 3.65012 1.73672 3.68226 1.70546 3.73226C1.68462 3.7644 1.69504 3.80726 1.7263 3.82512C1.75756 3.84655 1.79925 3.83583 1.81662 3.80369C1.89998 3.66798 1.85483 3.58226 1.83399 3.55369C1.78535 3.49298 1.69504 3.47155 1.61167 3.50012C1.60125 3.50369 1.59083 3.50726 1.58388 3.5144V3.34298C1.58735 3.37869 1.61514 3.40726 1.64988 3.40726C1.68462 3.40726 1.71588 3.37869 1.71588 3.3394C1.71588 3.29655 1.68462 3.21798 1.58388 3.19655V3.07155C1.58388 3.03583 1.55609 3.00369 1.51788 3.00369C1.47967 3.00369 1.45188 3.03226 1.45188 3.07155V3.19655C1.35115 3.22155 1.31988 3.29655 1.31988 3.3394C1.31988 3.37512 1.34767 3.41083 1.38588 3.41083C1.42062 3.41083 1.45188 3.38226 1.45188 3.34655V3.51798C1.44146 3.5144 1.43104 3.50726 1.42409 3.50369C1.33725 3.47155 1.25041 3.49298 1.20178 3.55726C1.17746 3.58583 1.1323 3.67155 1.21915 3.80726C1.23999 3.8394 1.2782 3.84655 1.30946 3.82869C1.34072 3.80726 1.34767 3.76798 1.3303 3.73583C1.29904 3.68583 1.29904 3.65369 1.30599 3.64298C1.31641 3.62869 1.34767 3.62155 1.38241 3.63583C1.40325 3.64298 1.45536 3.67155 1.45536 3.75369C1.45536 3.81798 1.42757 3.87869 1.37546 3.91798C1.32336 3.95726 1.25736 3.96798 1.19483 3.94655C1.11494 3.92155 1.06283 3.83583 1.06283 3.7394C1.06283 3.66798 1.07673 3.60012 1.10451 3.53583L1.52483 2.56798L1.93125 3.53226ZM1.44493 1.9894C1.46925 1.96798 1.49357 1.94655 1.51093 1.91798C1.5283 1.94655 1.55262 1.96798 1.57693 1.9894C1.55262 2.01083 1.5283 2.03226 1.51093 2.06083C1.49357 2.03226 1.47272 2.01083 1.44493 1.9894Z" fill="#FEC50C"/>
<path d="M9.40308 6.87873C10.2779 6.87873 10.9871 6.14959 10.9871 5.25015C10.9871 4.35072 10.2779 3.62158 9.40308 3.62158C8.52827 3.62158 7.81909 4.35072 7.81909 5.25015C7.81909 6.14959 8.52827 6.87873 9.40308 6.87873Z" fill="#FEC50C"/>
<path d="M9.52478 3.17498C9.52478 3.24284 9.47268 3.29641 9.40668 3.29641C9.34068 3.29641 9.28857 3.24284 9.28857 3.17498C9.28857 3.10712 9.40668 2.80713 9.40668 2.80713C9.40668 2.80713 9.52478 3.10712 9.52478 3.17498Z" fill="#FEC50C"/>
<path d="M9.28516 7.32822C9.28516 7.26036 9.33726 7.20679 9.40326 7.20679C9.46926 7.20679 9.52137 7.26036 9.52137 7.32822C9.52137 7.39607 9.40326 7.69607 9.40326 7.69607C9.40326 7.69607 9.28516 7.39607 9.28516 7.32822Z" fill="#FEC50C"/>
<path d="M11.4247 5.37518C11.3587 5.37518 11.3066 5.32161 11.3066 5.25375C11.3066 5.1859 11.3587 5.13232 11.4247 5.13232C11.4907 5.13232 11.7825 5.25375 11.7825 5.25375C11.7825 5.25375 11.4907 5.37518 11.4247 5.37518Z" fill="#FEC50C"/>
<path d="M7.38513 5.12842C7.45113 5.12842 7.50324 5.18199 7.50324 5.24985C7.50324 5.3177 7.45113 5.37127 7.38513 5.37127C7.31913 5.37127 7.02734 5.24985 7.02734 5.24985C7.02734 5.24985 7.31913 5.12842 7.38513 5.12842Z" fill="#FEC50C"/>
<path d="M10.9176 3.86825C10.8725 3.91468 10.7961 3.91468 10.7509 3.86825C10.7058 3.82182 10.7058 3.74325 10.7509 3.69682C10.7961 3.65039 11.0878 3.52539 11.0878 3.52539C11.0878 3.52539 10.9628 3.82182 10.9176 3.86825Z" fill="#FEC50C"/>
<path d="M7.89213 6.63199C7.93729 6.58556 8.01371 6.58556 8.05886 6.63199C8.10402 6.67842 8.10402 6.75699 8.05886 6.80341C8.01371 6.84984 7.72192 6.97484 7.72192 6.97484C7.72192 6.97484 7.84697 6.68199 7.89213 6.63199Z" fill="#FEC50C"/>
<path d="M10.7475 6.80732C10.7023 6.76089 10.7023 6.68232 10.7475 6.6359C10.7926 6.58947 10.8691 6.58947 10.9142 6.6359C10.9594 6.68232 11.081 6.98232 11.081 6.98232C11.081 6.98232 10.7961 6.85375 10.7475 6.80732Z" fill="#FEC50C"/>
<path d="M8.05881 3.69648C8.10397 3.74291 8.10397 3.82148 8.05881 3.86791C8.01365 3.91434 7.93723 3.91434 7.89208 3.86791C7.84692 3.82148 7.72534 3.52148 7.72534 3.52148C7.72534 3.52148 8.01365 3.65005 8.05881 3.69648Z" fill="#FEC50C"/>
<path d="M8.74302 3.28553C8.76734 3.34625 8.73955 3.41768 8.67703 3.44625C8.61797 3.47125 8.5485 3.44268 8.52071 3.37839C8.49639 3.31768 8.49292 2.99268 8.49292 2.99268C8.49292 2.99268 8.71524 3.22482 8.74302 3.28553Z" fill="#FEC50C"/>
<path d="M10.0666 7.21808C10.0423 7.15737 10.0701 7.08594 10.1326 7.05737C10.1951 7.02879 10.2611 7.06094 10.2889 7.12522C10.3167 7.18951 10.3167 7.51094 10.3167 7.51094C10.3167 7.51094 10.0944 7.2788 10.0666 7.21808Z" fill="#FEC50C"/>
<path d="M11.3169 4.56818C11.2579 4.59318 11.1884 4.56461 11.1606 4.50032C11.1328 4.43604 11.1641 4.36818 11.2266 4.33961C11.2857 4.31461 11.6018 4.31104 11.6018 4.31104C11.6018 4.31104 11.376 4.54318 11.3169 4.56818Z" fill="#FEC50C"/>
<path d="M7.4926 5.93233C7.55166 5.90733 7.62113 5.9359 7.64892 6.00019C7.67324 6.0609 7.64545 6.13233 7.58292 6.1609C7.52039 6.18947 7.20776 6.18947 7.20776 6.18947C7.20776 6.18947 7.43355 5.9609 7.4926 5.93233Z" fill="#FEC50C"/>
<path d="M10.289 3.37839C10.2646 3.4391 10.1952 3.47124 10.1326 3.44624C10.0736 3.42124 10.0423 3.34982 10.0666 3.28553C10.091 3.22482 10.3133 2.99268 10.3133 2.99268C10.3133 2.99268 10.3133 3.31767 10.289 3.37839Z" fill="#FEC50C"/>
<path d="M8.52065 7.12546C8.54497 7.06474 8.61444 7.0326 8.67697 7.0576C8.73603 7.0826 8.76729 7.15403 8.74297 7.21831C8.71866 7.27903 8.49634 7.51116 8.49634 7.51116C8.49634 7.51116 8.49634 7.18617 8.52065 7.12546Z" fill="#FEC50C"/>
<path d="M11.2269 6.15702C11.1678 6.13202 11.1366 6.06059 11.1609 5.99631C11.1852 5.93559 11.2547 5.90345 11.3172 5.92845C11.3797 5.95345 11.602 6.18201 11.602 6.18201C11.602 6.18201 11.2859 6.18559 11.2269 6.15702Z" fill="#FEC50C"/>
<path d="M7.58292 4.34287C7.64198 4.36787 7.67324 4.4393 7.64892 4.50358C7.62461 4.56429 7.55513 4.59643 7.49261 4.57143C7.43355 4.54643 7.20776 4.31787 7.20776 4.31787C7.20776 4.31787 7.52387 4.31787 7.58292 4.34287Z" fill="#FEC50C"/>
<path d="M9.12879 3.18947C9.14269 3.25733 9.10101 3.32162 9.03501 3.33233C8.96901 3.34662 8.90648 3.30376 8.89606 3.2359C8.88216 3.16805 8.94469 2.85376 8.94469 2.85376C8.94469 2.85376 9.1149 3.12519 9.12879 3.18947Z" fill="#FEC50C"/>
<path d="M9.68114 7.3104C9.66724 7.24254 9.70893 7.17825 9.77493 7.16754C9.84093 7.15325 9.90345 7.19611 9.91387 7.26397C9.92777 7.33183 9.86524 7.64611 9.86524 7.64611C9.86524 7.64611 9.69503 7.37825 9.68114 7.3104Z" fill="#FEC50C"/>
<path d="M11.4072 4.9645C11.3412 4.97879 11.2787 4.93593 11.2683 4.86807C11.2544 4.80022 11.2961 4.73593 11.3621 4.72522C11.4281 4.71093 11.7338 4.77522 11.7338 4.77522C11.7338 4.77522 11.4732 4.95379 11.4072 4.9645Z" fill="#FEC50C"/>
<path d="M7.39879 5.53546C7.46479 5.52117 7.52732 5.56403 7.53774 5.63189C7.55163 5.69975 7.50995 5.76403 7.44395 5.77475C7.37795 5.78903 7.07227 5.72475 7.07227 5.72475C7.07227 5.72475 7.33626 5.54975 7.39879 5.53546Z" fill="#FEC50C"/>
<path d="M10.6261 3.59311C10.5913 3.65025 10.5149 3.66454 10.4628 3.62525C10.4107 3.58597 10.3933 3.51097 10.4315 3.4574C10.4663 3.40025 10.7268 3.22168 10.7268 3.22168C10.7268 3.22168 10.6608 3.53597 10.6261 3.59311Z" fill="#FEC50C"/>
<path d="M8.18375 6.911C8.21848 6.85386 8.2949 6.83957 8.34701 6.87886C8.40259 6.91457 8.41648 6.99315 8.37827 7.04672C8.34353 7.10387 8.08301 7.28244 8.08301 7.28244C8.08301 7.28244 8.14553 6.96815 8.18375 6.911Z" fill="#FEC50C"/>
<path d="M11.0184 6.50761C10.9628 6.47189 10.9489 6.39332 10.9871 6.33974C11.0253 6.28617 11.0983 6.26831 11.1504 6.3076C11.206 6.34332 11.3797 6.61118 11.3797 6.61118C11.3797 6.61118 11.074 6.54332 11.0184 6.50761Z" fill="#FEC50C"/>
<path d="M7.79144 3.99688C7.84702 4.0326 7.86091 4.11117 7.8227 4.16474C7.78797 4.22189 7.71154 4.23617 7.65944 4.19688C7.60733 4.1576 7.43018 3.89331 7.43018 3.89331C7.43018 3.89331 7.73586 3.9576 7.79144 3.99688Z" fill="#FEC50C"/>
<path d="M8.38193 3.45739C8.41666 3.51454 8.40277 3.58954 8.35067 3.62525C8.29856 3.66097 8.22214 3.64668 8.1874 3.59311C8.15267 3.53597 8.08667 3.22168 8.08667 3.22168C8.08667 3.22168 8.34372 3.40025 8.38193 3.45739Z" fill="#FEC50C"/>
<path d="M10.4278 7.04688C10.3931 6.98974 10.407 6.91474 10.4591 6.87903C10.5146 6.84331 10.5876 6.8576 10.6223 6.91117C10.6571 6.96831 10.7231 7.28258 10.7231 7.28258C10.7231 7.28258 10.466 7.10402 10.4278 7.04688Z" fill="#FEC50C"/>
<path d="M11.1501 4.20005C11.0946 4.23576 11.0216 4.22147 10.9869 4.1679C10.9521 4.11076 10.966 4.03577 11.0181 4.00005C11.0737 3.96434 11.3794 3.89648 11.3794 3.89648C11.3794 3.89648 11.2057 4.16076 11.1501 4.20005Z" fill="#FEC50C"/>
<path d="M7.65944 6.30359C7.71502 6.26787 7.78796 6.28216 7.8227 6.33573C7.85744 6.39287 7.84354 6.46786 7.79144 6.50358C7.73586 6.53929 7.43018 6.60714 7.43018 6.60714C7.43018 6.60714 7.60386 6.3393 7.65944 6.30359Z" fill="#FEC50C"/>
<path d="M9.91374 3.23981C9.89984 3.30766 9.83731 3.35052 9.77478 3.33624C9.71226 3.32195 9.6671 3.25766 9.68099 3.19338C9.69489 3.12909 9.86858 2.85767 9.86858 2.85767C9.86858 2.85767 9.92763 3.17195 9.91374 3.23981Z" fill="#FEC50C"/>
<path d="M8.89266 7.26397C8.90655 7.19611 8.96908 7.15325 9.03161 7.16754C9.09414 7.18183 9.1393 7.24611 9.1254 7.3104C9.11151 7.37825 8.93782 7.64611 8.93782 7.64611C8.93782 7.64611 8.88224 7.33183 8.89266 7.26397Z" fill="#FEC50C"/>
<path d="M11.3621 5.77474C11.2961 5.76046 11.2544 5.69617 11.2683 5.63189C11.2822 5.56403 11.3447 5.52117 11.4072 5.53546C11.4698 5.54975 11.7338 5.72831 11.7338 5.72831C11.7338 5.72831 11.4281 5.78903 11.3621 5.77474Z" fill="#FEC50C"/>
<path d="M7.44736 4.72522C7.51336 4.7395 7.55505 4.80378 7.54115 4.86807C7.52726 4.93235 7.46473 4.97878 7.40221 4.96449C7.33968 4.95021 7.07568 4.77164 7.07568 4.77164C7.07568 4.77164 7.38137 4.7145 7.44736 4.72522Z" fill="#FEC50C"/>
<path d="M13.1304 5.67909C13.0853 5.65767 13.0297 5.68267 13.0123 5.72909C13.0123 5.72909 13.0088 5.73267 13.0054 5.74338C12.9359 5.90767 12.7935 6.15052 12.6511 6.37552C12.7831 5.93267 12.9081 5.46124 12.915 5.42909C12.9289 5.37909 12.8977 5.32909 12.8525 5.31481C12.8039 5.30052 12.7553 5.32909 12.7414 5.37909C12.6788 5.60767 12.5503 5.91124 12.4322 6.16838C12.4531 5.88267 12.4565 5.61838 12.4565 5.60052C12.4565 5.55052 12.4183 5.50767 12.3697 5.50409C12.3245 5.50409 12.2794 5.53981 12.2759 5.58981C12.1613 7.23624 10.619 7.97195 10.4696 8.03981C10.3897 8.04695 10.025 8.08981 9.69496 8.20767C9.65675 8.22195 9.62548 8.23624 9.59422 8.24695C9.5838 8.24338 9.56991 8.23981 9.55601 8.23981C8.53823 8.31481 7.72539 7.88624 7.14181 6.96481C6.70413 6.27552 6.56518 5.54338 6.56518 5.53624C6.55476 5.48624 6.5096 5.45409 6.4575 5.46124C6.40887 5.47195 6.37413 5.51838 6.38455 5.57195C6.38802 5.59338 6.45055 5.91124 6.61729 6.3291C6.39497 5.96481 6.23866 5.52552 6.18308 5.29695C6.18308 5.29338 6.1796 5.28981 6.17613 5.28624C6.17266 5.27909 6.17266 5.27195 6.16918 5.26838C6.16571 5.26481 6.16224 5.26124 6.15876 5.25767C6.15529 5.25052 6.14834 5.24695 6.14139 5.24338C6.13792 5.23981 6.13445 5.23981 6.13097 5.23981C6.12403 5.23624 6.11708 5.23267 6.11013 5.23267C6.10666 5.23267 6.09971 5.23267 6.09276 5.23267C6.08582 5.23267 6.08234 5.23267 6.07539 5.23267H6.07192H6.06845C6.06497 5.23267 6.0615 5.23624 6.05455 5.23981C6.04761 5.24338 6.04413 5.24338 6.03718 5.24695C6.03371 5.25052 6.03024 5.25409 6.02329 5.25767C6.01982 5.26124 6.01634 5.26481 6.01287 5.27195C6.00939 5.27552 6.00939 5.28267 6.00592 5.28981C6.00245 5.29695 6.00245 5.30052 5.99897 5.30767C5.99897 5.31481 5.99897 5.31838 5.99897 5.32552C5.99897 5.32909 5.99897 5.33624 5.99897 5.33981C5.99897 5.34338 5.99897 5.34338 5.99897 5.34695C6.05455 5.68624 6.19003 6.03981 6.3116 6.31124C6.12055 6.08624 5.95729 5.82909 5.90171 5.67552C5.90171 5.67195 5.89824 5.66838 5.89476 5.66481C5.89129 5.65767 5.88782 5.65052 5.88434 5.64695C5.88087 5.64338 5.8774 5.63981 5.87392 5.63624C5.86697 5.63267 5.8635 5.62552 5.85655 5.62552C5.85308 5.62195 5.84961 5.62195 5.84266 5.62195C5.83571 5.61838 5.82876 5.61838 5.82182 5.61838C5.81487 5.61838 5.8114 5.61838 5.80445 5.62195C5.7975 5.62195 5.79403 5.62195 5.79055 5.62195C5.79055 5.62195 5.79055 5.62195 5.78708 5.62195H5.78361C5.78013 5.62552 5.77666 5.62909 5.76971 5.62909C5.76624 5.63267 5.75929 5.63624 5.75582 5.63981C5.75234 5.64338 5.74887 5.65052 5.7454 5.65409C5.74192 5.65767 5.73845 5.66124 5.73498 5.66838C5.7315 5.67552 5.7315 5.67909 5.7315 5.68624C5.7315 5.69338 5.72803 5.69695 5.72803 5.70409C5.72803 5.71124 5.72803 5.71481 5.7315 5.72195C5.7315 5.72552 5.7315 5.73267 5.7315 5.73624C5.82876 6.06481 6.06845 6.45409 6.25603 6.72909C6.09971 6.60767 5.98508 6.47195 5.95382 6.43267C5.95034 6.42909 5.94687 6.42552 5.9434 6.41838C5.91213 6.37909 5.85308 6.37195 5.81487 6.40409C5.77666 6.43624 5.76971 6.49338 5.80097 6.53624C5.80097 6.53981 5.80792 6.54695 5.82182 6.56124C5.95729 6.72909 6.10666 6.88267 6.24213 7.01481L6.05803 6.93267C6.01634 6.91481 5.96771 6.92909 5.9434 6.97195C5.91908 7.01124 5.9295 7.06481 5.96771 7.09338C5.98508 7.10767 6.3116 7.35767 6.59297 7.50409C6.56518 7.50409 6.53392 7.50409 6.49918 7.50052C6.4575 7.49695 6.41581 7.52909 6.40539 7.57195C6.39497 7.61838 6.41929 7.66124 6.4575 7.67909C6.46445 7.68267 6.55129 7.71838 6.6555 7.75767C6.63118 7.76838 6.61034 7.78981 6.60339 7.81838C6.5895 7.86124 6.60687 7.90409 6.64508 7.92552C6.6555 7.93267 6.78402 8.00767 6.94034 8.07552C6.93686 8.08267 6.93339 8.08981 6.92992 8.09695C6.91602 8.13624 6.93339 8.17909 6.96465 8.20409C6.99244 8.22195 7.61076 8.65409 8.32981 8.65409C8.37844 8.65409 8.42359 8.65052 8.47223 8.64695C8.52086 8.64338 8.55907 8.59695 8.55559 8.54695C8.55212 8.49695 8.50696 8.45767 8.45833 8.46124C8.00675 8.50052 7.56907 8.32552 7.30855 8.18981C7.34328 8.18267 7.36413 8.17195 7.3676 8.17195C7.40928 8.15409 7.43013 8.11124 7.42318 8.06838C7.41623 8.02552 7.37802 7.99338 7.33634 7.99338C7.23213 7.98981 7.08623 7.93981 6.96118 7.88267C7.00981 7.85767 7.0376 7.83624 7.0376 7.83267C7.06539 7.80767 7.07581 7.77195 7.06886 7.73624C7.05844 7.70052 7.03065 7.67552 6.99592 7.66838C6.95771 7.66124 6.90908 7.65052 6.86044 7.63267C6.90908 7.60409 6.92992 7.57195 6.93686 7.55409C6.95076 7.52909 6.95076 7.49695 6.93686 7.47195C6.92297 7.44695 6.90213 7.42552 6.87434 7.42195C6.85002 7.41838 6.82223 7.40767 6.79444 7.39695C6.80139 7.38981 6.80487 7.38624 6.80834 7.37909C6.83265 7.33981 6.82223 7.28624 6.7875 7.25767C6.78402 7.25767 6.71455 7.20052 6.60687 7.10409C6.62423 7.09695 6.63813 7.08624 6.64855 7.06838C6.67287 7.03267 6.66939 6.98981 6.64508 6.95767C6.6416 6.95409 6.57213 6.86481 6.47487 6.72552C6.50613 6.75052 6.53739 6.77909 6.57213 6.79695C6.58602 6.80767 6.60339 6.81124 6.62076 6.81124C6.64508 6.81124 6.66592 6.80409 6.68329 6.78624C6.69023 6.77909 6.69718 6.77195 6.70065 6.76124C6.75623 6.82195 6.81529 6.87552 6.87434 6.92195C6.88129 6.92909 6.89171 6.92909 6.90213 6.93267C6.92644 6.97552 6.95423 7.02195 6.98202 7.06481C7.53434 7.93624 8.31244 8.40409 9.24338 8.43267C9.15654 8.48624 9.06275 8.54338 8.91686 8.60052C8.88559 8.61481 8.8578 8.62552 8.82654 8.63981C8.81265 8.64338 8.79875 8.64695 8.78833 8.65767C8.53128 8.77909 8.42359 8.90052 8.38191 8.98624C8.34023 9.07195 8.37496 9.15767 8.42707 9.20052C8.44444 9.21481 8.46528 9.22195 8.48612 9.22195C8.50002 9.22195 8.51391 9.21838 8.52781 9.21124C8.55907 9.19338 8.57991 9.16124 8.57991 9.12195C8.58338 9.11838 8.60075 9.10409 8.64938 9.10409C8.68412 9.10052 8.76054 9.10767 8.85086 9.11838C8.93422 9.12552 9.03496 9.13267 9.14264 9.13981C9.07665 9.22195 8.99675 9.31481 8.99675 9.31481C8.97243 9.34338 8.96896 9.38267 8.98286 9.41481C9.00022 9.44695 9.03149 9.46838 9.06622 9.46838C9.13917 9.46481 9.1878 9.46481 9.21906 9.46481C9.24685 9.50409 9.28159 9.51838 9.30243 9.52195C9.36496 9.53981 9.42749 9.51124 9.47264 9.48267C9.50738 9.50767 9.54212 9.51838 9.57338 9.52552C9.63591 9.53267 9.69496 9.51481 9.73664 9.49338C9.7818 9.52195 9.82348 9.52909 9.85822 9.52909C9.92769 9.52909 9.99022 9.49338 10.0354 9.45767C10.0736 9.48267 10.1118 9.48981 10.1396 9.48981C10.2056 9.49338 10.2577 9.46481 10.2959 9.44338C10.4244 9.46838 10.5356 9.40767 10.6085 9.33981C10.6433 9.36124 10.6745 9.36481 10.6988 9.36481C10.7648 9.36124 10.8135 9.32195 10.8447 9.28624C10.9906 9.30409 11.0948 9.27552 11.1539 9.20409C11.1852 9.16481 11.1991 9.11838 11.2025 9.07909C11.6055 9.07552 11.6402 8.85052 11.6437 8.82195C11.6472 8.79695 11.6402 8.77195 11.6228 8.75052C11.6055 8.73267 11.5846 8.71838 11.5603 8.71838L10.5043 8.65409C10.4592 8.65052 10.421 8.68267 10.4105 8.72552C10.4105 8.72552 10.3932 8.79695 10.3376 8.85052C10.2612 8.92552 10.1396 8.96481 10.0076 8.98624C10.0076 8.97195 10.0076 8.96124 10.0006 8.94695C9.98327 8.90052 9.93117 8.87552 9.88254 8.89338C9.66369 8.97909 9.31285 8.96838 9.03496 8.95052C9.07664 8.91481 9.12875 8.87909 9.17043 8.85767C9.20517 8.83981 9.22254 8.79695 9.21559 8.75767C9.20864 8.72909 9.19128 8.70767 9.16696 8.69695C9.24338 8.65767 9.30591 8.61838 9.36496 8.58267C9.46917 8.51838 9.56643 8.45409 9.74359 8.39338C10.0875 8.27195 10.487 8.23267 10.4904 8.23267C10.5008 8.23267 10.5078 8.22909 10.5182 8.22552C10.5321 8.21838 11.6576 7.73624 12.1856 6.61838C12.1786 6.65052 12.1717 6.68267 12.1647 6.71124C12.1508 6.75767 12.1717 6.80767 12.2168 6.82552C12.2516 6.83981 12.2898 6.83267 12.3141 6.80767C12.2794 6.89695 12.2516 6.96838 12.2273 7.01124C12.2029 7.05409 12.2134 7.11124 12.2551 7.13624C12.2655 7.14338 12.2759 7.14695 12.2863 7.15052C12.2446 7.21124 12.2029 7.27195 12.1613 7.32552C12.1335 7.36124 12.1369 7.41124 12.1647 7.44695C12.0953 7.52195 12.0293 7.58624 11.9841 7.62552C11.9528 7.65052 11.9424 7.69695 11.9563 7.73267C11.9112 7.76124 11.8729 7.77909 11.8452 7.78624C11.8 7.80052 11.7722 7.84695 11.7826 7.89338C11.7861 7.91838 11.8 7.93981 11.8174 7.95409C11.7618 7.96838 11.7027 7.98267 11.6367 7.99695C11.5985 8.00409 11.5707 8.03624 11.5638 8.07195C11.5568 8.11124 11.5742 8.15052 11.609 8.16838C11.6124 8.16838 11.6437 8.18981 11.6888 8.20767C11.5117 8.27909 11.1991 8.37552 10.685 8.42909C10.6363 8.43267 10.5981 8.47909 10.6051 8.53267C10.6085 8.58267 10.6537 8.61838 10.7058 8.61838C11.6819 8.51838 11.9841 8.26838 11.998 8.25767C12.0258 8.23267 12.0362 8.19338 12.0258 8.15767C12.0188 8.13267 12.0015 8.11481 11.9806 8.10409C12.2933 8.00409 12.4287 7.88981 12.4357 7.88624C12.4704 7.85767 12.4774 7.80767 12.4565 7.76838C12.4322 7.72909 12.3871 7.71124 12.3454 7.72909C12.3349 7.73267 12.3141 7.73981 12.2933 7.74338C12.5017 7.59695 12.724 7.41838 12.8247 7.34338C12.8421 7.32909 12.856 7.31838 12.8699 7.30409C12.9081 7.27195 12.9116 7.21481 12.8803 7.17195C12.849 7.13267 12.7935 7.12552 12.7553 7.15767C12.7414 7.16838 12.7275 7.18267 12.7101 7.19338C12.6649 7.22909 12.6059 7.26838 12.5434 7.30767C12.7796 7.02909 13.0193 6.72909 13.0887 6.64338C13.0957 6.63624 13.1026 6.62909 13.1061 6.61838C13.1374 6.57909 13.1304 6.51838 13.0922 6.48624C13.054 6.45409 12.9949 6.46124 12.9637 6.50052C12.9637 6.50409 12.9533 6.51124 12.9428 6.52909C12.8699 6.61838 12.7969 6.70767 12.7205 6.78624C12.9637 6.33624 13.1478 5.88981 13.1721 5.82552C13.1721 5.82195 13.1756 5.82195 13.1756 5.81838C13.1999 5.75409 13.179 5.70052 13.1304 5.67909ZM8.8717 8.82909L8.89601 8.83267C8.86475 8.86124 8.84044 8.89338 8.81959 8.92909C8.77791 8.92552 8.73623 8.92195 8.70496 8.92195C8.75359 8.89338 8.8057 8.86124 8.8717 8.82909Z" fill="#FEC50C"/>
</svg>
